<?xml version="1.0" encoding="UTF-8"?>
<svg id="_Слой_2" data-name="Слой 2" xmlns="http://www.w3.org/2000/svg" viewBox="0 0 1410.78 375.73">
  <defs>
    <style>
      .cls-1, .cls-2 {
        fill: #e0234e;
      }

      .cls-3 {
        fill: #4d4d4d;
      }

      .cls-4 {
        fill: #6d7278;
      }

      .cls-2 {
        fill-rule: evenodd;
      }
    </style>
  </defs>
  <g>
    <g>
      <path class="cls-2" d="m632.29,141.48c4.07-4.44,9.08-7.93,14.65-10.21,5.44-2.33,11.26-3.62,17.18-3.79,4.27-.38,8.52.99,11.76,3.79,2.41,2.33,3.71,5.57,3.57,8.91.02,3.32-1.26,6.52-3.57,8.91-2.26,2.53-5.52,3.93-8.91,3.83-14.68,1.3-35.05,15.92-35.05,35.8v45.11c-.21,6.94-5.81,12.51-12.75,12.7-3.47.13-6.81-1.32-9.1-3.93-2.41-2.34-3.78-5.55-3.81-8.91v-94.06c.03-3.36,1.4-6.57,3.81-8.91,2.79-2.02,6.13-3.13,9.57-3.2,6.95.15,12.55,5.75,12.7,12.7l-.05,1.25Z"/>
      <path class="cls-2" d="m786.85,182.87c.02,3.07-1.12,6.04-3.17,8.32-2.44,2.27-5.59,3.61-8.91,3.82h-75.23c.71,5.98,3.62,11.48,8.16,15.42,5.82,6.26,13.78,10.1,22.3,10.75,8.71,1.48,17.66-.59,24.84-5.74,2.53-2.54,5.99-3.93,9.57-3.83,3.08-.15,6.08,1.02,8.25,3.2,4.22,3.87,4.51,10.43.64,14.65,0,0,0,0,0,0h0c-.19.21-.4.4-.61.61-11.21,10.39-26.1,15.89-41.37,15.29-15.71.35-30.8-6.16-41.33-17.83-10.79-11.4-16.91-26.42-17.18-42.11-.32-15.79,5.89-31.01,17.18-42.06,10.3-11.21,24.91-17.47,40.13-17.19,14.8-.56,29.14,5.24,39.37,15.95,10.8,10.34,17.21,24.44,17.9,39.37v1.25l-.53.12Zm-56.72-33.75c-7.92.13-15.53,3.07-21.48,8.3-5.05,4.27-8.61,10.03-10.16,16.47h66.88c-1.87-6.47-5.93-12.08-11.48-15.9-6.7-5.4-14.93-8.53-23.52-8.96"/>
      <path class="cls-2" d="m906.7,232.59c-.18,6.95-5.75,12.54-12.7,12.75-6.04-.23-11.22-4.37-12.77-10.21-9.48,6.77-20.88,10.33-32.53,10.16-15.38.18-30.15-6.05-40.76-17.19-11.12-11.12-17.12-26.35-16.58-42.06-.1-15.63,5.84-30.68,16.58-42.03,10.54-11.33,25.29-17.8,40.76-17.89,11.44-.15,22.61,3.43,31.82,10.21v-44.53c-.09-3.39,1.32-6.65,3.83-8.91,2.38-2.44,5.63-3.82,9.04-3.83,3.39-.09,6.65,1.31,8.91,3.83,2.42,2.34,3.8,5.55,3.83,8.91v140.8h.56Zm-57.28-12.75c8.58.18,16.78-3.56,22.27-10.16,12.67-13.12,12.67-33.92,0-47.04-5.66-6.4-13.73-10.14-22.27-10.3-8.63-.3-16.89,3.48-22.3,10.21-12.67,13.12-12.67,33.92,0,47.04,5.6,6.47,13.74,10.18,22.3,10.16"/>
      <path class="cls-2" d="m944.35,91.79v5.13c.11,3.64-1.31,7.16-3.93,9.69-2.34,2.36-5.63,3.53-8.94,3.17-3.38.11-6.63-1.27-8.89-3.78-2.55-2.51-3.93-5.97-3.81-9.55v-4.71c.19-6.94,5.76-12.53,12.7-12.75,3.39-.05,6.64,1.36,8.91,3.88,2.56,2.25,3.99,5.51,3.9,8.91m-21.44,38.88c2.33-2.43,5.55-3.82,8.91-3.83,3.39-.11,6.66,1.29,8.91,3.83,2.44,2.51,3.76,5.91,3.64,9.41v93.16c.2,3.43-1.25,6.75-3.9,8.92-2.33,2.41-5.53,3.79-8.89,3.83-3.39.1-6.65-1.3-8.91-3.83-2.43-2.33-3.82-5.55-3.83-8.92v-93.07c-.09-3.53,1.3-6.95,3.83-9.41"/>
      <path class="cls-2" d="m1034.7,139.59c2.6,1.8,4.41,4.53,5.08,7.62.52,3.24.07,6.56-1.27,9.55-1.82,2.58-4.54,4.39-7.62,5.08-3.31.61-6.74-.07-9.57-1.9-8.92-5.71-15.88-8.9-21.65-8.9-5.09-.32-10.12,1.26-14.11,4.43-2.54,1.93-3.81,3.2-3.81,4.47-.18,1.11.05,2.24.63,3.2.73.78,1.59,1.43,2.54,1.9,5.19,3.27,11.09,5.25,17.21,5.76h0c7.92,1.31,15.62,3.68,22.91,7.05,16.71,7.19,24.43,26.57,17.24,43.28-2.41,5.6-6.32,10.42-11.31,13.92l-.2.13c-8.91,6.37-19.63,9.71-30.58,9.55-14.65,0-28.65-5.71-42.03-16.47-2.44-2.14-4.02-5.09-4.47-8.3-.62-6.73,4.33-12.68,11.06-13.3,3.12-.29,6.24.63,8.7,2.58,7.03,6.68,16.41,10.33,26.11,10.16,5.64.19,11.21-1.37,15.92-4.47,2.54-2.54,4.47-4.44,4.47-6.37s0-2.54-.63-3.17c0-.66-1.3-1.9-3.2-2.54-5.81-3.61-12.33-5.92-19.12-6.77h0c-7.57-1.09-14.89-3.47-21.64-7.05-6.19-3.02-11.46-7.62-15.29-13.34-2.51-4.48-3.81-9.52-3.78-14.65-.02-10.51,5.23-20.33,13.99-26.13,8.63-5.88,18.84-8.99,29.28-8.91,10.73.66,22.3,5.08,35.02,13.38"/>
      <path class="cls-2" d="m1067.91,188.14c0-19.79,5.51-35.2,16.54-46.23,11.03-11.03,26.38-16.54,46.06-16.53,20.18,0,35.72,5.42,46.64,16.25,10.91,10.83,16.37,26.01,16.37,45.53,0,14.17-2.38,25.78-7.15,34.85-4.64,8.94-11.84,16.31-20.67,21.16-9.03,5.05-20.26,7.57-33.7,7.57s-24.99-2.18-33.94-6.53c-8.95-4.35-16.22-11.24-21.82-20.67-5.55-9.43-8.33-21.23-8.33-35.39Zm37.46.16c0,12.24,2.27,21.03,6.82,26.38,4.55,5.34,10.74,8.02,18.56,8.03,8.05,0,14.28-2.62,18.69-7.86,4.41-5.24,6.62-14.64,6.61-28.2,0-11.41-2.3-19.75-6.91-25.02-4.61-5.27-10.85-7.9-18.73-7.9-7.55,0-13.62,2.68-18.19,8.03-4.58,5.35-6.86,14.2-6.86,26.54h0Z"/>
      <path class="cls-2" d="m1209.15,83.71h72.8l28.1,100.37,27.93-100.37h72.8v164.96h-45.36v-125.81l-34.95,125.81h-41.07l-34.89-125.81v125.81h-45.37V83.71Z"/>
      <rect class="cls-1" x="1069.35" y="84.04" width="122.31" height="30.58"/>
    </g>
    <path class="cls-2" d="m222.11,0C219.38,0,216.84.58,214.51,1.36c4.97,3.31,7.7,7.7,9.06,12.66.1.68.29,1.17.39,1.85.1.58.19,1.17.19,1.75.39,8.57-2.24,9.64-4.09,14.71-2.83,6.53-2.05,13.54,1.36,19.19.29.68.68,1.46,1.17,2.14-3.7-24.65,16.85-28.35,20.65-36.04.29-6.72-5.26-11.2-9.64-14.32-4.19-2.53-7.99-3.31-11.49-3.31h0Zm30.98,5.55c-.39,2.24-.1,1.66-.19,2.83-.1.78-.1,1.75-.19,2.53-.19.78-.39,1.56-.68,2.34-.19.78-.49,1.56-.78,2.34-.39.78-.68,1.46-1.07,2.24-.29.39-.49.78-.78,1.17-.19.29-.39.58-.58.88-.49.68-.97,1.36-1.46,1.95-.58.58-1.07,1.27-1.75,1.75v.1c-.58.49-1.17,1.07-1.85,1.56-2.05,1.56-4.38,2.73-6.53,4.19-.68.49-1.36.88-1.95,1.46-.68.49-1.27.97-1.85,1.56-.68.58-1.17,1.17-1.75,1.85-.49.58-1.07,1.27-1.46,1.95-.49.68-.97,1.36-1.36,2.05-.39.78-.68,1.46-1.07,2.24-.29.78-.58,1.46-.78,2.24-.29.88-.49,1.66-.68,2.44-.1.39-.1.88-.19,1.27-.1.39-.1.78-.19,1.17,0,.78-.1,1.66-.1,2.44,0,.58,0,1.17.1,1.75,0,.78.1,1.56.29,2.44.1.78.29,1.56.49,2.34.29.78.49,1.56.78,2.34.19.49.49.97.68,1.36l-22.41-8.67c-3.8-1.07-7.5-2.05-11.3-2.92-2.05-.49-4.09-.97-6.14-1.46-5.84-1.17-11.79-2.05-17.73-2.63-.19,0-.29-.1-.49-.1-5.84-.58-11.59-.88-17.44-.88-4.29,0-8.57.19-12.76.49-5.94.39-11.88,1.17-17.83,2.14-1.46.19-2.92.49-4.38.78-3.02.58-5.94,1.27-8.77,1.95-1.46.39-2.92.78-4.38,1.17-1.46.58-2.82,1.27-4.19,1.85-1.07.49-2.14.97-3.21,1.46-.19.1-.39.1-.49.19-.97.49-1.85.88-2.73,1.36-.29.1-.49.19-.68.29-1.07.49-2.14,1.07-3.02,1.56-.68.29-1.36.68-1.95.97-.29.19-.68.39-.88.49-.88.49-1.75.97-2.53,1.46-.88.49-1.66.97-2.34,1.46-.68.49-1.36.88-1.95,1.36-.1.1-.19.1-.29.19-.58.39-1.27.88-1.85,1.36,0,0-.1.1-.19.19-.49.39-.97.78-1.46,1.17-.19.1-.39.29-.58.39-.49.39-.97.88-1.46,1.27-.1.19-.29.29-.39.39-.58.58-1.17,1.07-1.75,1.66-.1,0-.1.1-.19.19-.58.49-1.17,1.07-1.75,1.66-.1.1-.1.19-.19.19-.49.49-.97.97-1.46,1.56-.19.19-.49.39-.68.58-.49.58-1.07,1.17-1.66,1.75-.1.19-.29.29-.39.49-.78.78-1.46,1.56-2.24,2.34-.1.1-.19.19-.29.29-1.56,1.66-3.21,3.31-4.97,4.77-1.75,1.56-3.6,3.02-5.46,4.29-1.95,1.36-3.8,2.53-5.84,3.7-1.95,1.07-3.99,2.05-6.14,2.92-2.05.88-4.19,1.66-6.33,2.34-4.09.88-8.28,2.53-11.88,2.83-.78,0-1.66.19-2.44.29-.88.19-1.66.39-2.44.58-.78.29-1.56.58-2.34.88-.78.29-1.56.68-2.34,1.07-.68.49-1.46.88-2.14,1.36-.68.49-1.36,1.07-1.95,1.66-.68.49-1.36,1.17-1.95,1.75-.58.68-1.17,1.27-1.66,1.95-.49.78-1.07,1.46-1.46,2.24-.49.68-.97,1.46-1.36,2.24-.39.88-.78,1.66-1.07,2.53-.29.78-.58,1.66-.88,2.53-.19.78-.39,1.56-.49,2.34,0,.1-.1.19-.1.29-.19.88-.19,2.05-.29,2.63-.1.68-.19,1.27-.19,1.95,0,.39,0,.88.1,1.27.1.68.19,1.27.39,1.85.19.58.39,1.17.68,1.75v.1c.29.58.68,1.17,1.07,1.75.39.58.78,1.17,1.27,1.75.49.49,1.07,1.07,1.66,1.56.58.58,1.17,1.07,1.85,1.56,2.34,2.05,2.92,2.73,5.94,4.29.49.29.97.49,1.56.78.1,0,.19.1.29.1,0,.19,0,.29.1.49.1.78.29,1.56.49,2.34.19.88.49,1.66.78,2.34.29.58.49,1.17.78,1.75.1.19.19.39.29.49.39.78.78,1.46,1.17,2.14.49.68.97,1.36,1.46,2.05.49.58,1.07,1.27,1.66,1.85.58.58,1.17,1.07,1.85,1.66,0,0,.1.1.19.1.58.49,1.17.97,1.75,1.36.68.49,1.36.88,2.14,1.27.68.39,1.46.78,2.24,1.07.58.29,1.27.49,1.95.68.1.1.19.1.39.19.39.1.88.19,1.27.29-.29,5.26-.39,10.23.39,11.98.88,1.95,5.16-3.99,9.45-10.81-.58,6.72-.97,14.61,0,16.95,1.07,2.44,6.92-5.16,11.98-13.54,69.07-15.98,132.09,31.76,138.72,99.17-1.27-10.52-14.22-16.37-20.16-14.9-2.92,7.21-7.89,16.46-15.88,22.21.68-6.43.39-13.05-.97-19.48-2.14,8.96-6.33,17.34-12.08,24.55-9.25.68-18.51-3.8-23.38-10.52-.39-.29-.49-.88-.78-1.27-.29-.68-.58-1.36-.78-2.05-.29-.68-.49-1.36-.58-2.05-.1-.68-.1-1.36-.1-2.14v-1.46c.1-.68.29-1.36.49-2.05.19-.68.39-1.36.68-2.05.39-.68.68-1.36,1.17-2.05,1.66-4.68,1.66-8.48-1.36-10.72-.58-.39-1.17-.68-1.85-.97-.39-.1-.88-.29-1.27-.39-.29-.1-.49-.19-.78-.29-.68-.19-1.36-.39-2.05-.49-.68-.19-1.36-.29-2.05-.29-.68-.1-1.46-.19-2.14-.19-.49,0-.97.1-1.46.1-.78,0-1.46.1-2.14.29-.68.1-1.36.19-2.05.39-.68.19-1.36.39-2.05.68-.68.29-1.27.58-1.95.88-.58.29-1.17.68-1.85.97-22.7,14.81-9.16,49.49,6.33,59.52-5.84,1.07-11.79,2.34-13.44,3.6-.1.1-.19.19-.19.19,4.19,2.53,8.57,4.68,13.15,6.53,6.23,2.05,12.86,3.9,15.78,4.68v.1c8.09,1.66,16.27,2.24,24.55,1.75,43.15-3.02,78.52-35.85,84.95-79.1.19.88.39,1.66.58,2.53.29,1.75.68,3.6.88,5.46v.1c.19.88.29,1.75.39,2.53v.39c.1.88.19,1.75.19,2.53.1,1.07.19,2.14.19,3.21v1.56c0,.49.1,1.07.1,1.56,0,.58-.1,1.17-.1,1.75v1.36c0,.68-.1,1.27-.1,1.95,0,.39,0,.78-.1,1.27,0,.68-.1,1.36-.1,2.14-.1.29-.1.58-.1.88-.1.78-.19,1.46-.29,2.24,0,.29,0,.58-.1.88-.1.97-.29,1.85-.39,2.83v.2c-.19.88-.39,1.85-.58,2.73v.29c-.19.88-.39,1.75-.58,2.63,0,.1-.1.29-.1.39-.19.88-.39,1.75-.68,2.63v.29c-.29.97-.58,1.85-.78,2.73-.1.1-.1.19-.1.19-.29.97-.58,1.95-.88,2.92-.39.97-.68,1.85-1.07,2.83-.39.97-.68,1.95-1.07,2.83-.39.97-.78,1.85-1.17,2.83h-.1c-.39.88-.78,1.85-1.27,2.73-.1.29-.19.49-.29.68-.1.1-.1.19-.19.29-6.33,12.76-15.68,23.96-27.37,32.73-.78.49-1.56,1.07-2.34,1.66-.19.19-.49.29-.68.49-.68.49-1.36.97-2.14,1.46l.29.58h.1c1.36-.19,2.73-.39,4.09-.58h.1c2.53-.39,5.07-.88,7.6-1.36.68-.1,1.46-.29,2.14-.49.49-.1.88-.19,1.36-.29.68-.1,1.36-.29,2.05-.39.58-.19,1.17-.29,1.75-.49,9.74-2.34,19.19-5.55,28.25-9.35-15.49,21.14-36.24,38.19-60.49,49.39,11.2-.78,22.41-2.63,33.22-5.75,39.26-11.59,72.28-37.99,92.06-73.55-3.99,22.5-12.96,43.93-26.2,62.64,9.45-6.23,18.12-13.44,26.01-21.63,21.82-22.8,36.14-51.73,41.01-82.8,3.31,15.39,4.29,31.27,2.83,46.95,70.33-98.1,5.84-199.8-21.14-226.59-.1-.19-.19-.29-.19-.49q-.1.1-.1.19,0-.1-.1-.19c0,1.17-.1,2.34-.19,3.51-.29,2.24-.58,4.38-.97,6.53-.49,2.14-1.07,4.29-1.66,6.43-.68,2.05-1.46,4.19-2.34,6.23-.88,1.95-1.85,3.99-2.92,5.94-1.07,1.85-2.24,3.8-3.51,5.55-1.27,1.85-2.63,3.6-3.99,5.26-1.46,1.75-3.02,3.31-4.58,4.87-.97.88-1.85,1.66-2.83,2.44-.78.68-1.46,1.27-2.24,1.95-1.75,1.36-3.51,2.63-5.46,3.8-1.85,1.17-3.8,2.34-5.75,3.31-2.05.97-4.09,1.85-6.14,2.73-2.05.78-4.19,1.46-6.33,2.05-2.14.58-4.38,1.07-6.53,1.46-2.24.39-4.48.58-6.62.78-1.56.1-3.12.19-4.68.19-2.24,0-4.48-.19-6.62-.39-2.24-.19-4.48-.49-6.62-.97-2.24-.39-4.38-.97-6.53-1.66h-.1c2.14-.19,4.29-.39,6.43-.78,2.24-.39,4.38-.88,6.53-1.46,2.14-.58,4.29-1.27,6.33-2.05,2.14-.78,4.19-1.75,6.14-2.73,2.05-.97,3.9-2.05,5.84-3.21,1.85-1.27,3.7-2.53,5.46-3.9,1.75-1.36,3.41-2.82,4.97-4.38,1.66-1.46,3.12-3.12,4.58-4.77,1.46-1.75,2.83-3.51,4.09-5.26.19-.29.39-.68.58-.97.97-1.56,1.95-3.12,2.82-4.68,1.07-1.95,2.05-3.9,2.92-5.94.88-2.05,1.66-4.09,2.34-6.23.68-2.05,1.17-4.19,1.66-6.33.39-2.24.78-4.38.97-6.53.19-2.24.39-4.48.39-6.62,0-1.56-.1-3.12-.19-4.68-.19-2.24-.49-4.38-.78-6.53-.39-2.24-.88-4.38-1.46-6.53-.68-2.05-1.36-4.19-2.14-6.23-.78-2.05-1.75-4.09-2.73-6.04-1.07-1.95-2.14-3.9-3.31-5.75-1.27-1.85-2.53-3.6-3.9-5.36-1.46-1.66-2.92-3.31-4.48-4.97-.78-.78-1.66-1.66-2.53-2.44-4.38-3.41-8.96-6.62-13.54-9.55-.68-.39-1.27-.68-1.95-.97-3.21-2.05-6.23-3.12-9.25-4.09h0Z"/>
    <path class="cls-2" d="m493.83,175.28h25.15c.92,0,1.67.75,1.67,1.67v9.54c0,.92-.75,1.67-1.67,1.67h-25.15c-.92,0-1.67.75-1.67,1.67v28.23c0,.92-.75,1.67-1.67,1.67h-9.61c-.92,0-1.67-.75-1.67-1.67v-28.23c0-.92-.75-1.67-1.67-1.67h-25.08c-.92,0-1.67-.75-1.67-1.67v-9.54c0-.92.75-1.67,1.67-1.67h25.08c.92,0,1.67-.75,1.67-1.67v-26.41c0-.92.75-1.67,1.67-1.67h9.61c.92,0,1.67.75,1.67,1.67v26.41c0,.92.75,1.67,1.67,1.67Z"/>
  </g>
  <g>
    <g>
      <path class="cls-4" d="m632.29,141.48c4.07-4.44,9.08-7.93,14.65-10.21,5.44-2.33,11.26-3.62,17.18-3.79,4.27-.38,8.52.99,11.76,3.79,2.41,2.33,3.71,5.57,3.57,8.91.02,3.32-1.26,6.52-3.57,8.91-2.26,2.53-5.52,3.93-8.91,3.83-14.68,1.3-35.05,15.92-35.05,35.8v45.11c-.21,6.94-5.81,12.51-12.75,12.7-3.47.13-6.81-1.32-9.1-3.93-2.41-2.34-3.78-5.55-3.81-8.91v-94.06c.03-3.36,1.4-6.57,3.81-8.91,2.79-2.02,6.13-3.13,9.57-3.2,6.95.15,12.55,5.75,12.7,12.7l-.05,1.25Z"/>
      <path class="cls-4" d="m786.85,182.87c.02,3.07-1.12,6.04-3.17,8.32-2.44,2.27-5.59,3.61-8.91,3.82h-75.23c.71,5.98,3.62,11.48,8.16,15.42,5.82,6.26,13.78,10.1,22.3,10.75,8.71,1.48,17.66-.59,24.84-5.74,2.53-2.54,5.99-3.93,9.57-3.83,3.08-.15,6.08,1.02,8.25,3.2,4.22,3.87,4.51,10.43.64,14.65,0,0,0,0,0,0h0c-.19.21-.4.4-.61.61-11.21,10.39-26.1,15.89-41.37,15.29-15.71.35-30.8-6.16-41.33-17.83-10.79-11.4-16.91-26.42-17.18-42.11-.32-15.79,5.89-31.01,17.18-42.06,10.3-11.21,24.91-17.47,40.13-17.19,14.8-.56,29.14,5.24,39.37,15.95,10.8,10.34,17.21,24.44,17.9,39.37v1.25l-.53.12Zm-56.72-33.75c-7.92.13-15.53,3.07-21.48,8.3-5.05,4.27-8.61,10.03-10.16,16.47h66.88c-1.87-6.47-5.93-12.08-11.48-15.9-6.7-5.4-14.93-8.53-23.52-8.96"/>
      <path class="cls-4" d="m906.7,232.59c-.18,6.95-5.75,12.54-12.7,12.75-6.04-.23-11.22-4.37-12.77-10.21-9.48,6.77-20.88,10.33-32.53,10.16-15.38.18-30.15-6.05-40.76-17.19-11.12-11.12-17.12-26.35-16.58-42.06-.1-15.63,5.84-30.68,16.58-42.03,10.54-11.33,25.29-17.8,40.76-17.89,11.44-.15,22.61,3.43,31.82,10.21v-44.53c-.09-3.39,1.32-6.65,3.83-8.91,2.38-2.44,5.63-3.82,9.04-3.83,3.39-.09,6.65,1.31,8.91,3.83,2.42,2.34,3.8,5.55,3.83,8.91v140.8h.56Zm-57.28-12.75c8.58.18,16.78-3.56,22.27-10.16,12.67-13.12,12.67-33.92,0-47.04-5.66-6.4-13.73-10.14-22.27-10.3-8.63-.3-16.89,3.48-22.3,10.21-12.67,13.12-12.67,33.92,0,47.04,5.6,6.47,13.74,10.18,22.3,10.16"/>
      <path class="cls-4" d="m944.35,91.79v5.13c.11,3.64-1.31,7.16-3.93,9.69-2.34,2.36-5.63,3.53-8.94,3.17-3.38.11-6.63-1.27-8.89-3.78-2.55-2.51-3.93-5.97-3.81-9.55v-4.71c.19-6.94,5.76-12.53,12.7-12.75,3.39-.05,6.64,1.36,8.91,3.88,2.56,2.25,3.99,5.51,3.9,8.91m-21.44,38.88c2.33-2.43,5.55-3.82,8.91-3.83,3.39-.11,6.66,1.29,8.91,3.83,2.44,2.51,3.76,5.91,3.64,9.41v93.16c.2,3.43-1.25,6.75-3.9,8.92-2.33,2.41-5.53,3.79-8.89,3.83-3.39.1-6.65-1.3-8.91-3.83-2.43-2.33-3.82-5.55-3.83-8.92v-93.07c-.09-3.53,1.3-6.95,3.83-9.41"/>
      <path class="cls-4" d="m1034.7,139.59c2.6,1.8,4.41,4.53,5.08,7.62.52,3.24.07,6.56-1.27,9.55-1.82,2.58-4.54,4.39-7.62,5.08-3.31.61-6.74-.07-9.57-1.9-8.92-5.71-15.88-8.9-21.65-8.9-5.09-.32-10.12,1.26-14.11,4.43-2.54,1.93-3.81,3.2-3.81,4.47-.18,1.11.05,2.24.63,3.2.73.78,1.59,1.43,2.54,1.9,5.19,3.27,11.09,5.25,17.21,5.76h0c7.92,1.31,15.62,3.68,22.91,7.05,16.71,7.19,24.43,26.57,17.24,43.28-2.41,5.6-6.32,10.42-11.31,13.92l-.2.13c-8.91,6.37-19.63,9.71-30.58,9.55-14.65,0-28.65-5.71-42.03-16.47-2.44-2.14-4.02-5.09-4.47-8.3-.62-6.73,4.33-12.68,11.06-13.3,3.12-.29,6.24.63,8.7,2.58,7.03,6.68,16.41,10.33,26.11,10.16,5.64.19,11.21-1.37,15.92-4.47,2.54-2.54,4.47-4.44,4.47-6.37s0-2.54-.63-3.17c0-.66-1.3-1.9-3.2-2.54-5.81-3.61-12.33-5.92-19.12-6.77h0c-7.57-1.09-14.89-3.47-21.64-7.05-6.19-3.02-11.46-7.62-15.29-13.34-2.51-4.48-3.81-9.52-3.78-14.65-.02-10.51,5.23-20.33,13.99-26.13,8.63-5.88,18.84-8.99,29.28-8.91,10.73.66,22.3,5.08,35.02,13.38"/>
      <path class="cls-4" d="m1067.91,188.14c0-19.79,5.51-35.2,16.54-46.23,11.03-11.03,26.38-16.54,46.06-16.53,20.18,0,35.72,5.42,46.64,16.25,10.91,10.83,16.37,26.01,16.37,45.53,0,14.17-2.38,25.78-7.15,34.85-4.64,8.94-11.84,16.31-20.67,21.16-9.03,5.05-20.26,7.57-33.7,7.57s-24.99-2.18-33.94-6.53c-8.95-4.35-16.22-11.24-21.82-20.67-5.55-9.43-8.33-21.23-8.33-35.39Zm37.46.16c0,12.24,2.27,21.03,6.82,26.38,4.55,5.34,10.74,8.02,18.56,8.03,8.05,0,14.28-2.62,18.69-7.86,4.41-5.24,6.62-14.64,6.61-28.2,0-11.41-2.3-19.75-6.91-25.02-4.61-5.27-10.85-7.9-18.73-7.9-7.55,0-13.62,2.68-18.19,8.03-4.58,5.35-6.86,14.2-6.86,26.54h0Z"/>
      <path class="cls-4" d="m1209.15,83.71h72.8l28.1,100.37,27.93-100.37h72.8v164.96h-45.36v-125.81l-34.95,125.81h-41.07l-34.89-125.81v125.81h-45.37V83.71Z"/>
      <rect class="cls-4" x="1069.35" y="84.04" width="122.31" height="30.58"/>
    </g>
    <path class="cls-2" d="m222.11,0C219.38,0,216.84.58,214.51,1.36c4.97,3.31,7.7,7.7,9.06,12.66.1.68.29,1.17.39,1.85.1.58.19,1.17.19,1.75.39,8.57-2.24,9.64-4.09,14.71-2.83,6.53-2.05,13.54,1.36,19.19.29.68.68,1.46,1.17,2.14-3.7-24.65,16.85-28.35,20.65-36.04.29-6.72-5.26-11.2-9.64-14.32-4.19-2.53-7.99-3.31-11.49-3.31h0Zm30.98,5.55c-.39,2.24-.1,1.66-.19,2.83-.1.78-.1,1.75-.19,2.53-.19.78-.39,1.56-.68,2.34-.19.78-.49,1.56-.78,2.34-.39.78-.68,1.46-1.07,2.24-.29.39-.49.78-.78,1.17-.19.29-.39.58-.58.88-.49.68-.97,1.36-1.46,1.95-.58.58-1.07,1.27-1.75,1.75v.1c-.58.49-1.17,1.07-1.85,1.56-2.05,1.56-4.38,2.73-6.53,4.19-.68.49-1.36.88-1.95,1.46-.68.49-1.27.97-1.85,1.56-.68.58-1.17,1.17-1.75,1.85-.49.58-1.07,1.27-1.46,1.95-.49.68-.97,1.36-1.36,2.05-.39.78-.68,1.46-1.07,2.24-.29.78-.58,1.46-.78,2.24-.29.88-.49,1.66-.68,2.44-.1.39-.1.88-.19,1.27-.1.39-.1.78-.19,1.17,0,.78-.1,1.66-.1,2.44,0,.58,0,1.17.1,1.75,0,.78.1,1.56.29,2.44.1.78.29,1.56.49,2.34.29.78.49,1.56.78,2.34.19.49.49.97.68,1.36l-22.41-8.67c-3.8-1.07-7.5-2.05-11.3-2.92-2.05-.49-4.09-.97-6.14-1.46-5.84-1.17-11.79-2.05-17.73-2.63-.19,0-.29-.1-.49-.1-5.84-.58-11.59-.88-17.44-.88-4.29,0-8.57.19-12.76.49-5.94.39-11.88,1.17-17.83,2.14-1.46.19-2.92.49-4.38.78-3.02.58-5.94,1.27-8.77,1.95-1.46.39-2.92.78-4.38,1.17-1.46.58-2.82,1.27-4.19,1.85-1.07.49-2.14.97-3.21,1.46-.19.1-.39.1-.49.19-.97.49-1.85.88-2.73,1.36-.29.1-.49.19-.68.29-1.07.49-2.14,1.07-3.02,1.56-.68.29-1.36.68-1.95.97-.29.19-.68.39-.88.49-.88.49-1.75.97-2.53,1.46-.88.49-1.66.97-2.34,1.46-.68.49-1.36.88-1.95,1.36-.1.1-.19.1-.29.19-.58.39-1.27.88-1.85,1.36,0,0-.1.1-.19.19-.49.39-.97.78-1.46,1.17-.19.1-.39.29-.58.39-.49.39-.97.88-1.46,1.27-.1.19-.29.29-.39.39-.58.58-1.17,1.07-1.75,1.66-.1,0-.1.1-.19.19-.58.49-1.17,1.07-1.75,1.66-.1.1-.1.19-.19.19-.49.49-.97.97-1.46,1.56-.19.19-.49.39-.68.58-.49.58-1.07,1.17-1.66,1.75-.1.19-.29.29-.39.49-.78.78-1.46,1.56-2.24,2.34-.1.1-.19.19-.29.29-1.56,1.66-3.21,3.31-4.97,4.77-1.75,1.56-3.6,3.02-5.46,4.29-1.95,1.36-3.8,2.53-5.84,3.7-1.95,1.07-3.99,2.05-6.14,2.92-2.05.88-4.19,1.66-6.33,2.34-4.09.88-8.28,2.53-11.88,2.83-.78,0-1.66.19-2.44.29-.88.19-1.66.39-2.44.58-.78.29-1.56.58-2.34.88-.78.29-1.56.68-2.34,1.07-.68.49-1.46.88-2.14,1.36-.68.49-1.36,1.07-1.95,1.66-.68.49-1.36,1.17-1.95,1.75-.58.68-1.17,1.27-1.66,1.95-.49.78-1.07,1.46-1.46,2.24-.49.68-.97,1.46-1.36,2.24-.39.88-.78,1.66-1.07,2.53-.29.78-.58,1.66-.88,2.53-.19.78-.39,1.56-.49,2.34,0,.1-.1.19-.1.29-.19.88-.19,2.05-.29,2.63-.1.68-.19,1.27-.19,1.95,0,.39,0,.88.1,1.27.1.68.19,1.27.39,1.85.19.58.39,1.17.68,1.75v.1c.29.58.68,1.17,1.07,1.75.39.58.78,1.17,1.27,1.75.49.49,1.07,1.07,1.66,1.56.58.58,1.17,1.07,1.85,1.56,2.34,2.05,2.92,2.73,5.94,4.29.49.29.97.49,1.56.78.1,0,.19.1.29.1,0,.19,0,.29.1.49.1.78.29,1.56.49,2.34.19.88.49,1.66.78,2.34.29.58.49,1.17.78,1.75.1.19.19.39.29.49.39.78.78,1.46,1.17,2.14.49.68.97,1.36,1.46,2.05.49.58,1.07,1.27,1.66,1.85.58.58,1.17,1.07,1.85,1.66,0,0,.1.1.19.1.58.49,1.17.97,1.75,1.36.68.49,1.36.88,2.14,1.27.68.39,1.46.78,2.24,1.07.58.29,1.27.49,1.95.68.1.1.19.1.39.19.39.1.88.19,1.27.29-.29,5.26-.39,10.23.39,11.98.88,1.95,5.16-3.99,9.45-10.81-.58,6.72-.97,14.61,0,16.95,1.07,2.44,6.92-5.16,11.98-13.54,69.07-15.98,132.09,31.76,138.72,99.17-1.27-10.52-14.22-16.37-20.16-14.9-2.92,7.21-7.89,16.46-15.88,22.21.68-6.43.39-13.05-.97-19.48-2.14,8.96-6.33,17.34-12.08,24.55-9.25.68-18.51-3.8-23.38-10.52-.39-.29-.49-.88-.78-1.27-.29-.68-.58-1.36-.78-2.05-.29-.68-.49-1.36-.58-2.05-.1-.68-.1-1.36-.1-2.14v-1.46c.1-.68.29-1.36.49-2.05.19-.68.39-1.36.68-2.05.39-.68.68-1.36,1.17-2.05,1.66-4.68,1.66-8.48-1.36-10.72-.58-.39-1.17-.68-1.85-.97-.39-.1-.88-.29-1.27-.39-.29-.1-.49-.19-.78-.29-.68-.19-1.36-.39-2.05-.49-.68-.19-1.36-.29-2.05-.29-.68-.1-1.46-.19-2.14-.19-.49,0-.97.1-1.46.1-.78,0-1.46.1-2.14.29-.68.1-1.36.19-2.05.39-.68.19-1.36.39-2.05.68-.68.29-1.27.58-1.95.88-.58.29-1.17.68-1.85.97-22.7,14.81-9.16,49.49,6.33,59.52-5.84,1.07-11.79,2.34-13.44,3.6-.1.1-.19.19-.19.19,4.19,2.53,8.57,4.68,13.15,6.53,6.23,2.05,12.86,3.9,15.78,4.68v.1c8.09,1.66,16.27,2.24,24.55,1.75,43.15-3.02,78.52-35.85,84.95-79.1.19.88.39,1.66.58,2.53.29,1.75.68,3.6.88,5.46v.1c.19.88.29,1.75.39,2.53v.39c.1.88.19,1.75.19,2.53.1,1.07.19,2.14.19,3.21v1.56c0,.49.1,1.07.1,1.56,0,.58-.1,1.17-.1,1.75v1.36c0,.68-.1,1.27-.1,1.95,0,.39,0,.78-.1,1.27,0,.68-.1,1.36-.1,2.14-.1.29-.1.58-.1.88-.1.78-.19,1.46-.29,2.24,0,.29,0,.58-.1.88-.1.97-.29,1.85-.39,2.83v.2c-.19.88-.39,1.85-.58,2.73v.29c-.19.88-.39,1.75-.58,2.63,0,.1-.1.29-.1.39-.19.88-.39,1.75-.68,2.63v.29c-.29.97-.58,1.85-.78,2.73-.1.1-.1.19-.1.19-.29.97-.58,1.95-.88,2.92-.39.97-.68,1.85-1.07,2.83-.39.97-.68,1.95-1.07,2.83-.39.97-.78,1.85-1.17,2.83h-.1c-.39.88-.78,1.85-1.27,2.73-.1.29-.19.49-.29.68-.1.1-.1.19-.19.29-6.33,12.76-15.68,23.96-27.37,32.73-.78.49-1.56,1.07-2.34,1.66-.19.19-.49.29-.68.49-.68.49-1.36.97-2.14,1.46l.29.58h.1c1.36-.19,2.73-.39,4.09-.58h.1c2.53-.39,5.07-.88,7.6-1.36.68-.1,1.46-.29,2.14-.49.49-.1.88-.19,1.36-.29.68-.1,1.36-.29,2.05-.39.58-.19,1.17-.29,1.75-.49,9.74-2.34,19.19-5.55,28.25-9.35-15.49,21.14-36.24,38.19-60.49,49.39,11.2-.78,22.41-2.63,33.22-5.75,39.26-11.59,72.28-37.99,92.06-73.55-3.99,22.5-12.96,43.93-26.2,62.64,9.45-6.23,18.12-13.44,26.01-21.63,21.82-22.8,36.14-51.73,41.01-82.8,3.31,15.39,4.29,31.27,2.83,46.95,70.33-98.1,5.84-199.8-21.14-226.59-.1-.19-.19-.29-.19-.49q-.1.1-.1.19,0-.1-.1-.19c0,1.17-.1,2.34-.19,3.51-.29,2.24-.58,4.38-.97,6.53-.49,2.14-1.07,4.29-1.66,6.43-.68,2.05-1.46,4.19-2.34,6.23-.88,1.95-1.85,3.99-2.92,5.94-1.07,1.85-2.24,3.8-3.51,5.55-1.27,1.85-2.63,3.6-3.99,5.26-1.46,1.75-3.02,3.31-4.58,4.87-.97.88-1.85,1.66-2.83,2.44-.78.68-1.46,1.27-2.24,1.95-1.75,1.36-3.51,2.63-5.46,3.8-1.85,1.17-3.8,2.34-5.75,3.31-2.05.97-4.09,1.85-6.14,2.73-2.05.78-4.19,1.46-6.33,2.05-2.14.58-4.38,1.07-6.53,1.46-2.24.39-4.48.58-6.62.78-1.56.1-3.12.19-4.68.19-2.24,0-4.48-.19-6.62-.39-2.24-.19-4.48-.49-6.62-.97-2.24-.39-4.38-.97-6.53-1.66h-.1c2.14-.19,4.29-.39,6.43-.78,2.24-.39,4.38-.88,6.53-1.46,2.14-.58,4.29-1.27,6.33-2.05,2.14-.78,4.19-1.75,6.14-2.73,2.05-.97,3.9-2.05,5.84-3.21,1.85-1.27,3.7-2.53,5.46-3.9,1.75-1.36,3.41-2.82,4.97-4.38,1.66-1.46,3.12-3.12,4.58-4.77,1.46-1.75,2.83-3.51,4.09-5.26.19-.29.39-.68.58-.97.97-1.56,1.95-3.12,2.82-4.68,1.07-1.95,2.05-3.9,2.92-5.94.88-2.05,1.66-4.09,2.34-6.23.68-2.05,1.17-4.19,1.66-6.33.39-2.24.78-4.38.97-6.53.19-2.24.39-4.48.39-6.62,0-1.56-.1-3.12-.19-4.68-.19-2.24-.49-4.38-.78-6.53-.39-2.24-.88-4.38-1.46-6.53-.68-2.05-1.36-4.19-2.14-6.23-.78-2.05-1.75-4.09-2.73-6.04-1.07-1.95-2.14-3.9-3.31-5.75-1.27-1.85-2.53-3.6-3.9-5.36-1.46-1.66-2.92-3.31-4.48-4.97-.78-.78-1.66-1.66-2.53-2.44-4.38-3.41-8.96-6.62-13.54-9.55-.68-.39-1.27-.68-1.95-.97-3.21-2.05-6.23-3.12-9.25-4.09h0Z"/>
    <path class="cls-3" d="m493.83,175.28h25.15c.92,0,1.67.75,1.67,1.67v9.54c0,.92-.75,1.67-1.67,1.67h-25.15c-.92,0-1.67.75-1.67,1.67v28.23c0,.92-.75,1.67-1.67,1.67h-9.61c-.92,0-1.67-.75-1.67-1.67v-28.23c0-.92-.75-1.67-1.67-1.67h-25.08c-.92,0-1.67-.75-1.67-1.67v-9.54c0-.92.75-1.67,1.67-1.67h25.08c.92,0,1.67-.75,1.67-1.67v-26.41c0-.92.75-1.67,1.67-1.67h9.61c.92,0,1.67.75,1.67,1.67v26.41c0,.92.75,1.67,1.67,1.67Z"/>
  </g>
</svg>